<svg xmlns="http://www.w3.org/2000/svg" viewBox="0 0 64 64" role="img">
  <title>Smart Favorites favicon</title>
  <rect width="64" height="64" rx="14" fill="#2563eb"/>
  <path
    data-mark="bookmark"
    d="M19 14.5c0-3 2.4-5.5 5.5-5.5h22c3 0 5.5 2.5 5.5 5.5V55L35.5 45.2 19 55V14.5Z"
    fill="#ffffff"
  />
  <path
    d="M24 16.5c0-1.1.9-2 2-2h17c1.1 0 2 .9 2 2v25.8l-9.5-5.7-11.5 6.8V16.5Z"
    fill="#dbeafe"
  />
  <path
    data-mark="star"
    d="M47.5 6.5 50 13l7 .5-5.4 4.5 1.7 6.8-5.8-3.7-5.8 3.7 1.7-6.8-5.4-4.5 7-.5 2.5-6.5Z"
    fill="#67e8f9"
  />
  <path
    d="M47.5 11.5 49 15.1l3.9.3-3 2.5.9 3.8-3.3-2.1-3.3 2.1.9-3.8-3-2.5 3.9-.3 1.5-3.6Z"
    fill="#ffffff"
  />
</svg>
